<svg xmlns="http://www.w3.org/2000/svg" viewBox="0 0 1280 800" role="img" aria-label="project-knowledge dashboard">
  <defs>
    <linearGradient id="page" x1="0" y1="0" x2="0" y2="800" gradientUnits="userSpaceOnUse">
      <stop offset="0" stop-color="#0d1218"/>
      <stop offset="1" stop-color="#0a0e14"/>
    </linearGradient>
    <linearGradient id="sidebar" x1="0" y1="0" x2="0" y2="800" gradientUnits="userSpaceOnUse">
      <stop offset="0" stop-color="#070b10"/>
      <stop offset="1" stop-color="#090d13"/>
    </linearGradient>
    <linearGradient id="panel" x1="0" y1="0" x2="0" y2="1">
      <stop offset="0" stop-color="#1a2330"/>
      <stop offset="1" stop-color="#161e2a"/>
    </linearGradient>
    <linearGradient id="pulse" x1="0" y1="0" x2="80" y2="0" gradientUnits="userSpaceOnUse">
      <stop offset="0" stop-color="#60a5fa" stop-opacity="0"/>
      <stop offset=".5" stop-color="#60a5fa" stop-opacity=".9"/>
      <stop offset="1" stop-color="#60a5fa" stop-opacity="0"/>
    </linearGradient>
    <filter id="shadow" x="-10%" y="-10%" width="120%" height="120%">
      <feDropShadow dx="0" dy="2" stdDeviation="6" flood-color="#000" flood-opacity="0.4"/>
    </filter>
  </defs>

  <rect width="1280" height="800" fill="url(#page)"/>

  <!-- Sidebar -->
  <rect width="290" height="800" fill="url(#sidebar)"/>
  <rect x="290" width="1" height="800" fill="rgba(255,255,255,0.06)"/>

  <!-- Sidebar header -->
  <g transform="translate(28,40)" font-family="-apple-system, BlinkMacSystemFont, 'Segoe UI', sans-serif">
    <text x="0" y="0" font-size="10" fill="#64748b" letter-spacing="2.5" font-weight="600">PROJECT-KNOWLEDGE</text>
    <text x="0" y="24" font-size="17" font-weight="600" fill="#d7e0ea" letter-spacing="-0.2">Control Center</text>
    <text x="0" y="42" font-size="10" fill="#64748b" font-family="ui-monospace, Consolas, monospace">~/.project-knowledge</text>
  </g>
  <line x1="20" y1="100" x2="270" y2="100" stroke="rgba(255,255,255,0.05)"/>

  <!-- Projects section header -->
  <g transform="translate(28,124)" font-family="-apple-system, BlinkMacSystemFont, 'Segoe UI', sans-serif">
    <text x="0" y="0" font-size="9" font-weight="700" letter-spacing="2.2" fill="#64748b">PROJECTS</text>
    <rect x="190" y="-13" width="68" height="22" rx="5" fill="rgba(255,255,255,0.04)" stroke="rgba(255,255,255,0.08)"/>
    <text x="224" y="1" font-size="11" fill="#cbd5e1" text-anchor="middle" font-weight="500">+ Import</text>
  </g>

  <!-- Project cards -->
  <g transform="translate(20,148)" font-family="-apple-system, BlinkMacSystemFont, 'Segoe UI', sans-serif">

    <!-- Selected -->
    <g filter="url(#shadow)">
      <rect x="0" y="0" width="250" height="72" rx="9" fill="rgba(116,146,165,0.10)" stroke="#7492a5" stroke-width="1"/>
    </g>
    <text x="14" y="22" font-size="12.5" font-weight="600" fill="#e3ebf5">project-knowledge-base</text>
    <text x="14" y="38" font-size="10.5" fill="#94a3b8" font-family="ui-monospace, Consolas, monospace">D:/SanQian.Xu/project-knowledge-base</text>

    <!-- Status dot + progress (animated) -->
    <circle cx="232" cy="22" r="4" fill="#60a5fa"/>
    <circle cx="232" cy="22" r="4" fill="#60a5fa" opacity="0.3">
      <animate attributeName="r" values="4;9;4" dur="1.6s" repeatCount="indefinite"/>
      <animate attributeName="opacity" values="0.5;0;0.5" dur="1.6s" repeatCount="indefinite"/>
    </circle>
    <rect x="160" y="34" width="72" height="3" rx="1.5" fill="rgba(255,255,255,0.08)"/>
    <rect x="160" y="34" width="72" height="3" rx="1.5" fill="url(#pulse)">
      <animate attributeName="x" values="-72;160" dur="1.4s" repeatCount="indefinite"/>
    </rect>

    <!-- Chips -->
    <rect x="14" y="50" width="60" height="16" rx="8" fill="rgba(255,255,255,0.06)"/>
    <text x="44" y="61" font-size="9.5" fill="#94a3b8" text-anchor="middle" font-weight="500">clean</text>
    <rect x="80" y="50" width="68" height="16" rx="8" fill="rgba(197,161,93,0.12)"/>
    <text x="114" y="61" font-size="9.5" fill="#c5a15d" text-anchor="middle" font-weight="500">3 pending</text>

    <!-- Project 2 -->
    <rect x="0" y="86" width="250" height="60" rx="9" fill="rgba(255,255,255,0.025)" stroke="rgba(255,255,255,0.05)"/>
    <text x="14" y="106" font-size="12.5" font-weight="500" fill="#cbd5e1">tokmeter</text>
    <text x="14" y="122" font-size="10.5" fill="#94a3b8" font-family="ui-monospace, Consolas, monospace">D:/SanQian.Xu/Token Leaderboard</text>
    <circle cx="232" cy="108" r="4" fill="#75b798"/>
    <rect x="14" y="132" width="40" height="14" rx="7" fill="rgba(255,255,255,0.05)"/>
    <text x="34" y="142" font-size="9.5" fill="#94a3b8" text-anchor="middle" font-weight="500">clean</text>

    <!-- Project 3 -->
    <rect x="0" y="160" width="250" height="60" rx="9" fill="rgba(255,255,255,0.025)" stroke="rgba(255,255,255,0.05)"/>
    <text x="14" y="180" font-size="12.5" font-weight="500" fill="#cbd5e1">esp-idf-fan-controller</text>
    <text x="14" y="196" font-size="10.5" fill="#94a3b8" font-family="ui-monospace, Consolas, monospace">H:/esp/fan-controller</text>
    <circle cx="232" cy="182" r="4" fill="#c5a15d"/>
    <rect x="14" y="206" width="56" height="14" rx="7" fill="rgba(197,161,93,0.12)"/>
    <text x="42" y="216" font-size="9.5" fill="#c5a15d" text-anchor="middle" font-weight="500">7 pending</text>

    <!-- Project 4 -->
    <rect x="0" y="234" width="250" height="60" rx="9" fill="rgba(255,255,255,0.025)" stroke="rgba(255,255,255,0.05)"/>
    <text x="14" y="254" font-size="12.5" font-weight="500" fill="#cbd5e1">grpc-cpp-bench</text>
    <text x="14" y="270" font-size="10.5" fill="#94a3b8" font-family="ui-monospace, Consolas, monospace">J:/grpc_1.76</text>
    <circle cx="232" cy="256" r="4" fill="#8794a6"/>
    <rect x="14" y="280" width="60" height="14" rx="7" fill="rgba(255,255,255,0.05)"/>
    <text x="44" y="290" font-size="9.5" fill="#94a3b8" text-anchor="middle" font-weight="500">unknown</text>
  </g>

  <!-- Bottom nav -->
  <line x1="20" y1="690" x2="270" y2="690" stroke="rgba(255,255,255,0.05)"/>
  <g transform="translate(20,706)" font-family="-apple-system, BlinkMacSystemFont, 'Segoe UI', sans-serif">
    <rect x="0" y="0" width="250" height="30" rx="7" fill="rgba(255,255,255,0.04)"/>
    <text x="14" y="19" font-size="12.5" fill="#e3ebf5" font-weight="500">Dashboard</text>
    <circle cx="226" cy="15" r="3" fill="#75b798"/>

    <text x="14" y="50" font-size="12.5" fill="#64748b">Runs / Drafts</text>
    <rect x="200" y="40" width="40" height="14" rx="7" fill="rgba(116,146,165,0.18)"/>
    <text x="220" y="50" font-size="9.5" fill="#7492a5" text-anchor="middle" font-weight="600">12</text>

    <text x="14" y="78" font-size="12.5" fill="#64748b">AI Profiles</text>
  </g>

  <!-- Main content area -->
  <g transform="translate(330,40)" font-family="-apple-system, BlinkMacSystemFont, 'Segoe UI', sans-serif">
    <!-- Page header -->
    <text x="0" y="0" font-size="11" fill="#94a3b8">Console</text>
    <text x="0" y="22" font-size="20" font-weight="600" fill="#e3ebf5" letter-spacing="-0.3">Project Supervision</text>

    <!-- Toolbar -->
    <g transform="translate(620,-14)">
      <rect width="74" height="28" rx="6" fill="rgba(255,255,255,0.03)" stroke="rgba(255,255,255,0.06)"/>
      <text x="37" y="18" font-size="11" fill="#cbd5e1" text-anchor="middle">中文 / EN</text>

      <rect x="84" width="92" height="28" rx="6" fill="rgba(255,255,255,0.03)" stroke="rgba(255,255,255,0.06)"/>
      <circle cx="14" cy="14" r="6" fill="none" stroke="#cbd5e1" stroke-width="1.2"/>
      <path d="M9 14 A5 5 0 0 1 19 14 A5 5 0 0 1 9 14 Z" fill="#cbd5e1" opacity="0.4"/>
      <text x="56" y="18" font-size="11" fill="#cbd5e1" text-anchor="middle">Dark</text>

      <rect x="186" width="84" height="28" rx="6" fill="rgba(255,255,255,0.03)" stroke="rgba(255,255,255,0.06)"/>
      <text x="228" y="18" font-size="11" fill="#cbd5e1" text-anchor="middle">Settings</text>

      <rect x="280" width="80" height="28" rx="6" fill="rgba(255,255,255,0.03)" stroke="rgba(255,255,255,0.06)"/>
      <circle cx="14" cy="14" r="3" fill="#75b798"/>
      <text x="50" y="18" font-size="11" fill="#cbd5e1" text-anchor="middle">GitHub</text>
    </g>
  </g>

  <!-- Summary cards -->
  <g transform="translate(330,96)" font-family="-apple-system, BlinkMacSystemFont, 'Segoe UI', sans-serif">
    <g>
      <rect width="222" height="86" rx="9" fill="url(#panel)" stroke="rgba(255,255,255,0.06)"/>
      <text x="16" y="24" font-size="11" fill="#94a3b8">Pending Commits</text>
      <text x="16" y="54" font-size="24" font-weight="700" fill="#e3ebf5" letter-spacing="-0.5">12</text>
      <text x="16" y="72" font-size="10" fill="#94a3b8">across 3 projects</text>
    </g>
    <g transform="translate(232,0)">
      <rect width="222" height="86" rx="9" fill="url(#panel)" stroke="rgba(255,255,255,0.06)"/>
      <text x="16" y="24" font-size="11" fill="#94a3b8">Active Runs</text>
      <text x="16" y="54" font-size="24" font-weight="700" fill="#e3ebf5" letter-spacing="-0.5">1</text>
      <text x="16" y="72" font-size="10" fill="#94a3b8">commit analysis</text>
      <circle cx="200" cy="20" r="3" fill="#60a5fa"/>
    </g>
    <g transform="translate(464,0)">
      <rect width="222" height="86" rx="9" fill="url(#panel)" stroke="rgba(255,255,255,0.06)"/>
      <text x="16" y="24" font-size="11" fill="#94a3b8">Pending Drafts</text>
      <text x="16" y="54" font-size="24" font-weight="700" fill="#e3ebf5" letter-spacing="-0.5">4</text>
      <text x="16" y="72" font-size="10" fill="#94a3b8">awaiting review</text>
    </g>
    <g transform="translate(696,0)">
      <rect width="222" height="86" rx="9" fill="url(#panel)" stroke="rgba(255,255,255,0.06)"/>
      <text x="16" y="24" font-size="11" fill="#94a3b8">Issues</text>
      <text x="16" y="54" font-size="24" font-weight="700" fill="#e3ebf5" letter-spacing="-0.5">0</text>
      <text x="16" y="72" font-size="10" fill="#94a3b8">no errors / warnings</text>
    </g>
  </g>

  <!-- Project detail panel -->
  <g transform="translate(330,202)" font-family="-apple-system, BlinkMacSystemFont, 'Segoe UI', sans-serif">
    <rect width="918" height="568" rx="11" fill="url(#panel)" stroke="rgba(255,255,255,0.06)"/>

    <!-- Header -->
    <g transform="translate(28,28)">
      <circle cx="5" cy="-4" r="4.5" fill="#60a5fa"/>
      <text x="20" y="0" font-size="16" font-weight="600" fill="#e3ebf5" letter-spacing="-0.2">project-knowledge-base</text>
      <rect x="306" y="-16" width="68" height="18" rx="9" fill="rgba(255,255,255,0.04)" stroke="rgba(255,255,255,0.06)"/>
      <text x="340" y="-3" font-size="10" fill="#94a3b8" text-anchor="middle" font-weight="500">reference</text>

      <rect x="754" y="-22" width="136" height="28" rx="6" fill="rgba(211,109,109,0.08)" stroke="rgba(211,109,109,0.3)"/>
      <text x="822" y="-3" font-size="11" fill="#d36d6d" text-anchor="middle" font-weight="500">Remove Project</text>

      <text x="0" y="20" font-size="10.5" fill="#94a3b8" font-family="ui-monospace, Consolas, monospace">D:/SanQian.Xu/project-knowledge-base</text>
    </g>

    <line x1="20" y1="68" x2="898" y2="68" stroke="rgba(255,255,255,0.04)"/>

    <!-- Status cards row -->
    <g transform="translate(28,88)">
      <g>
        <rect width="208" height="76" rx="9" fill="rgba(255,255,255,0.025)" stroke="rgba(255,255,255,0.05)"/>
        <text x="14" y="22" font-size="10.5" fill="#94a3b8">Repository</text>
        <circle cx="194" cy="20" r="3.5" fill="#75b798"/>
        <text x="14" y="50" font-size="15" font-weight="600" fill="#e3ebf5">clean</text>
      </g>
      <g transform="translate(218,0)">
        <rect width="208" height="76" rx="9" fill="rgba(255,255,255,0.025)" stroke="rgba(255,255,255,0.05)"/>
        <text x="14" y="22" font-size="10.5" fill="#94a3b8">Pending</text>
        <circle cx="194" cy="20" r="3.5" fill="#c5a15d"/>
        <text x="14" y="50" font-size="15" font-weight="600" fill="#e3ebf5">3 commits</text>
      </g>
      <g transform="translate(436,0)">
        <rect width="208" height="76" rx="9" fill="rgba(255,255,255,0.025)" stroke="rgba(255,255,255,0.05)"/>
        <text x="14" y="22" font-size="10.5" fill="#94a3b8">Goal</text>
        <circle cx="194" cy="20" r="3.5" fill="#75b798"/>
        <text x="14" y="50" font-size="15" font-weight="600" fill="#e3ebf5">accepted</text>
      </g>
      <g transform="translate(654,0)">
        <rect width="208" height="76" rx="9" fill="rgba(255,255,255,0.025)" stroke="rgba(255,255,255,0.05)"/>
        <text x="14" y="22" font-size="10.5" fill="#94a3b8">Knowledge Base</text>
        <circle cx="194" cy="20" r="3.5" fill="#75b798"/>
        <text x="14" y="50" font-size="15" font-weight="600" fill="#e3ebf5">ready</text>
      </g>
    </g>

    <!-- Pending commits section -->
    <g transform="translate(28,196)">
      <text x="0" y="0" font-size="13" font-weight="600" fill="#e3ebf5">Pending Commits</text>
      <text x="0" y="18" font-size="11" fill="#94a3b8" font-family="ui-monospace, Consolas, monospace">main → HEAD · 3 commits since last analysis</text>

      <!-- Table header -->
      <g transform="translate(0,40)" font-family="ui-monospace, Consolas, monospace">
        <rect x="0" y="0" width="572" height="22" fill="rgba(255,255,255,0.02)" rx="4"/>
        <text x="12" y="15" font-size="9.5" fill="#64748b" letter-spacing="1.5" font-weight="600">HASH</text>
        <text x="84" y="15" font-size="9.5" fill="#64748b" letter-spacing="1.5" font-weight="600">DATE</text>
        <text x="200" y="15" font-size="9.5" fill="#64748b" letter-spacing="1.5" font-weight="600">AUTHOR</text>
        <text x="316" y="15" font-size="9.5" fill="#64748b" letter-spacing="1.5" font-weight="600">SUBJECT</text>

        <g font-size="11" fill="#cbd5e1">
          <text x="12" y="44">c6cde9c</text>
          <text x="84" y="44">2026-07-09 01:21</text>
          <text x="200" y="44">SanQianX</text>
          <text x="316" y="44">Release v3.0.14 team knowledge sparse checkout</text>
        </g>
        <line x1="0" y1="56" x2="572" y2="56" stroke="rgba(255,255,255,0.04)"/>
        <g font-size="11" fill="#cbd5e1">
          <text x="12" y="74">6faef2a</text>
          <text x="84" y="74">2026-07-08 21:39</text>
          <text x="200" y="74">SanQianX</text>
          <text x="316" y="74">Release v3.0.13 open-source core</text>
        </g>
        <line x1="0" y1="86" x2="572" y2="86" stroke="rgba(255,255,255,0.04)"/>
        <g font-size="11" fill="#cbd5e1">
          <text x="12" y="104">cf14ac9</text>
          <text x="84" y="104">2026-07-08 16:24</text>
          <text x="200" y="104">SanQianX</text>
          <text x="316" y="104">Release v3.0.12 Gitea OAuth client secret support</text>
        </g>
      </g>

      <!-- Action buttons -->
      <g transform="translate(0,200)">
        <rect width="180" height="36" rx="7" fill="#7492a5"/>
        <text x="90" y="22" font-size="12" fill="#0c1118" font-weight="600" text-anchor="middle">▶ Analyze commits</text>

        <rect x="192" y="0" width="180" height="36" rx="7" fill="rgba(255,255,255,0.03)" stroke="rgba(255,255,255,0.08)"/>
        <text x="282" y="22" font-size="12" fill="#cbd5e1" text-anchor="middle" font-weight="500">Scan repository</text>

        <rect x="384" y="0" width="180" height="36" rx="7" fill="rgba(255,255,255,0.03)" stroke="rgba(255,255,255,0.08)"/>
        <text x="474" y="22" font-size="12" fill="#cbd5e1" text-anchor="middle" font-weight="500">Rebuild KB</text>
      </g>
    </g>

    <!-- Right side: Claude workbench -->
    <g transform="translate(640,196)">
      <rect width="250" height="280" rx="9" fill="rgba(255,255,255,0.02)" stroke="rgba(255,255,255,0.05)"/>
      <text x="14" y="22" font-size="11" font-weight="600" fill="#cbd5e1">Claude Workbench</text>
      <circle cx="232" cy="18" r="3" fill="#75b798"/>

      <g transform="translate(14,38)" font-size="10.5">
        <rect width="222" height="48" rx="7" fill="rgba(96,165,250,0.10)" stroke="rgba(96,165,250,0.25)"/>
        <text x="10" y="16" fill="#94a3b8" font-size="9.5" font-weight="600" letter-spacing="1.2">YOU</text>
        <text x="10" y="32" fill="#cbd5e1">Summarize v3.0.14 changes</text>
        <text x="10" y="44" fill="#cbd5e1">and propose a KB update.</text>

        <rect x="14" y="58" width="208" height="78" rx="7" fill="rgba(255,255,255,0.025)" stroke="rgba(255,255,255,0.05)"/>
        <text x="24" y="74" fill="#94a3b8" font-size="9.5" font-weight="600" letter-spacing="1.2">CLAUDE</text>
        <text x="24" y="90" fill="#cbd5e1">v3.0.14 introduces sparse</text>
        <text x="24" y="102" fill="#cbd5e1">checkout for team stores —</text>
        <text x="24" y="114" fill="#cbd5e1">only changes/ and modules/</text>
        <text x="24" y="126" fill="#cbd5e1">are materialized…</text>
      </g>

      <!-- Input -->
      <g transform="translate(14,250)">
        <rect width="160" height="22" rx="6" fill="rgba(255,255,255,0.02)" stroke="rgba(255,255,255,0.06)"/>
        <text x="10" y="15" font-size="10" fill="#64748b">Ask about this project…</text>
        <rect x="170" y="0" width="58" height="22" rx="6" fill="#7492a5"/>
        <text x="199" y="15" font-size="10" fill="#0c1118" font-weight="600" text-anchor="middle">Send</text>
      </g>
    </g>
  </g>
</svg>