<svg xmlns="http://www.w3.org/2000/svg" viewBox="0 0 880 80" role="img" aria-label="feature icons">
  <defs>
    <style>
      .ico { fill: none; stroke: #7492a5; stroke-width: 1.5; stroke-linecap: round; stroke-linejoin: round; }
      .lbl { font-family: -apple-system, BlinkMacSystemFont, "Segoe UI", sans-serif; font-size: 11px; fill: #94a3b8; text-anchor: middle; }
    </style>
  </defs>

  <g transform="translate(0,8)">
    <g transform="translate(28,4)" class="ico"><rect x="0" y="0" width="18" height="13" rx="2"/><path d="M5 17h8M9 13v4"/><circle cx="9" cy="6.5" r="2.5"/><path d="M6.5 6.5h-2M11.5 6.5h2M9 4v-2"/></g>
    <text x="37" y="44" class="lbl">local</text>

    <g transform="translate(118,4)" class="ico"><circle cx="3" cy="3" r="2.5"/><circle cx="15" cy="3" r="2.5"/><circle cx="9" cy="15" r="2.5"/><path d="M3 5.5v3a3 3 0 0 0 3 3h6a3 3 0 0 0 3-3v-3"/><path d="M9 11.5V5.5"/></g>
    <text x="127" y="44" class="lbl">git-aware</text>

    <g transform="translate(230,4)" class="ico"><path d="M5 0v18M13 0v18"/><path d="M8 4l-3 3 3 3M10 14l3-3-3-3"/></g>
    <text x="239" y="44" class="lbl">diff review</text>

    <g transform="translate(348,4)" class="ico"><rect x="0" y="3" width="16" height="12" rx="2"/><circle cx="5" cy="9" r="1.2"/><circle cx="11" cy="9" r="1.2"/><path d="M5 12h6"/><path d="M-2 6v6M18 6v6M5 1v2M11 1v2M5 15v2M11 15v2"/></g>
    <text x="357" y="44" class="lbl">LLM drafts</text>

    <g transform="translate(458,4)" class="ico"><circle cx="6" cy="5" r="3"/><circle cx="14" cy="6" r="2.5"/><path d="M0 17c0-3.3 2.7-6 6-6s6 2.7 6 6"/><path d="M11 17c0-2.2 1.5-4 3.5-4s3.5 1.8 3.5 4"/></g>
    <text x="467" y="44" class="lbl">team KB</text>

    <g transform="translate(548,4)" class="ico"><path d="M0 2h7M3.5 0v2"/><path d="M1 9c0-3 2-6 5-6"/><path d="M6 3c0 4-2 7-5 9"/><path d="M11 18l4-10 4 10"/><path d="M12.5 14h5"/></g>
    <text x="557" y="44" class="lbl">bilingual</text>

    <g transform="translate(652,4)" class="ico"><path d="M9 0l8 3v6c0 5-3.5 8-8 9-4.5-1-8-4-8-9V3l8-3z"/><path d="M6 9l2 2 4-4"/></g>
    <text x="661" y="44" class="lbl">zero-cloud</text>

    <g transform="translate(758,4)" class="ico"><path d="M15 6V2a2 2 0 0 0-2-2H3a2 2 0 0 0-2 2v14a2 2 0 0 0 2 2h6"/><path d="M0 6h12"/><circle cx="16" cy="14" r="3"/><path d="M16 11v3h3"/></g>
    <text x="767" y="44" class="lbl">post-commit</text>
  </g>
</svg>