<svg xmlns="http://www.w3.org/2000/svg" viewBox="0 0 1280 800" role="img" aria-label="Runs and Drafts review screen">
  <defs>
    <linearGradient id="page2" x1="0" y1="0" x2="0" y2="800" gradientUnits="userSpaceOnUse">
      <stop offset="0" stop-color="#0c1118"/>
      <stop offset="1" stop-color="#0a0e14"/>
    </linearGradient>
    <linearGradient id="diffAdd" x1="0" y1="0" x2="1" y2="0">
      <stop offset="0" stop-color="rgba(117,183,152,0.25)"/>
      <stop offset="1" stop-color="rgba(117,183,152,0.05)"/>
    </linearGradient>
  </defs>
  <rect width="1280" height="800" fill="url(#page2)"/>

  <!-- Sidebar (collapsed) -->
  <rect x="0" y="0" width="310" height="800" fill="#080c11"/>
  <line x1="310" y1="0" x2="310" y2="800" stroke="rgba(255,255,255,0.06)"/>

  <g transform="translate(20,28)" font-family="-apple-system, BlinkMacSystemFont, Segoe UI, sans-serif">
    <text x="0" y="0" font-size="11" fill="#64748b" letter-spacing="2.5" font-weight="600">PROJECT-KNOWLEDGE</text>
    <text x="0" y="26" font-size="20" font-weight="600" fill="#d7e0ea">Control Center</text>
  </g>

  <g transform="translate(20,118)" font-family="-apple-system, BlinkMacSystemFont, Segoe UI, sans-serif">
    <text x="0" y="0" font-size="10" font-weight="600" letter-spacing="2" fill="#64748b">PROJECTS</text>
  </g>

  <g transform="translate(20,150)" font-family="-apple-system, BlinkMacSystemFont, Segoe UI, sans-serif">
    <rect x="0" y="0" width="270" height="60" rx="10" fill="rgba(255,255,255,0.03)" stroke="rgba(255,255,255,0.06)"/>
    <text x="14" y="20" font-size="13" font-weight="500" fill="#cbd5e1">project-knowledge-base</text>
    <text x="14" y="36" font-size="11" fill="#94a3b8" font-family="ui-monospace, Consolas, monospace">D:/SanQian.Xu/project-knowledge-base</text>

    <rect x="0" y="72" width="270" height="60" rx="10" fill="rgba(255,255,255,0.03)" stroke="rgba(255,255,255,0.06)"/>
    <text x="14" y="92" font-size="13" font-weight="500" fill="#cbd5e1">tokmeter</text>
    <text x="14" y="108" font-size="11" fill="#94a3b8" font-family="ui-monospace, Consolas, monospace">D:/SanQian.Xu/Token Leaderboard</text>
  </g>

  <!-- Bottom nav with Runs highlighted -->
  <line x1="20" y1="690" x2="290" y2="690" stroke="rgba(255,255,255,0.08)"/>
  <g transform="translate(20,706)" font-family="-apple-system, BlinkMacSystemFont, Segoe UI, sans-serif">
    <text x="14" y="20" font-size="13" fill="#64748b">Dashboard</text>
    <rect x="0" y="32" width="270" height="32" rx="7" fill="rgba(255,255,255,0.08)"/>
    <text x="14" y="52" font-size="13" fill="#e3ebf5">Runs / Drafts</text>
    <rect x="220" y="41" width="40" height="14" rx="7" fill="#7492a5"/>
    <text x="240" y="51" font-size="10" fill="#0c1118" font-weight="600" text-anchor="middle">12</text>

    <text x="14" y="80" font-size="13" fill="#64748b">AI Profiles</text>
  </g>

  <!-- Main content: Runs / Drafts split view -->
  <g transform="translate(330,28)" font-family="-apple-system, BlinkMacSystemFont, Segoe UI, sans-serif">
    <text x="0" y="0" font-size="12" fill="#94a3b8">Console</text>
    <text x="0" y="24" font-size="22" font-weight="600" fill="#e3ebf5">Runs &amp; Drafts</text>

    <g transform="translate(640,-10)">
      <rect x="0" y="0" width="130" height="28" rx="6" fill="rgba(255,255,255,0.03)" stroke="rgba(255,255,255,0.08)"/>
      <text x="65" y="18" font-size="11" fill="#cbd5e1" text-anchor="middle">Filter: pending</text>

      <rect x="142" y="0" width="124" height="28" rx="6" fill="rgba(255,255,255,0.03)" stroke="rgba(255,255,255,0.08)"/>
      <text x="204" y="18" font-size="11" fill="#cbd5e1" text-anchor="middle">⟲ Refresh</text>
    </g>
  </g>

  <!-- Left: Runs list -->
  <g transform="translate(330,90)" font-family="-apple-system, BlinkMacSystemFont, Segoe UI, sans-serif">
    <rect width="380" height="680" rx="10" fill="#141c26" stroke="rgba(255,255,255,0.08)"/>
    <text x="20" y="28" font-size="13" font-weight="600" fill="#cbd5e1">12 runs</text>

    <!-- Run 1 (selected) -->
    <g transform="translate(14,46)">
      <rect width="352" height="92" rx="9" fill="rgba(116,146,165,0.12)" stroke="#7492a5"/>
      <text x="14" y="22" font-size="12" font-weight="600" fill="#e3ebf5">commit-analysis · success</text>
      <text x="14" y="40" font-size="11" fill="#94a3b8" font-family="ui-monospace, Consolas, monospace">run-2026-07-09-c6cde9c</text>
      <text x="14" y="60" font-size="10" fill="#64748b">2026-07-09 01:24 · 18.4s · 3 drafts</text>
      <rect x="270" y="60" width="68" height="20" rx="10" fill="rgba(117,183,152,0.18)"/>
      <text x="304" y="73" font-size="10" fill="#75b798" text-anchor="middle" font-weight="600">3 drafts</text>
    </g>

    <!-- Run 2 -->
    <g transform="translate(14,150)">
      <rect width="352" height="92" rx="9" fill="rgba(255,255,255,0.03)" stroke="rgba(255,255,255,0.08)"/>
      <text x="14" y="22" font-size="12" font-weight="600" fill="#cbd5e1">commit-analysis · success</text>
      <text x="14" y="40" font-size="11" fill="#94a3b8" font-family="ui-monospace, Consolas, monospace">run-2026-07-08-6faef2a</text>
      <text x="14" y="60" font-size="10" fill="#64748b">2026-07-08 21:42 · 22.1s · 5 drafts</text>
      <rect x="270" y="60" width="68" height="20" rx="10" fill="rgba(117,183,152,0.18)"/>
      <text x="304" y="73" font-size="10" fill="#75b798" text-anchor="middle" font-weight="600">5 drafts</text>
    </g>

    <!-- Run 3 -->
    <g transform="translate(14,254)">
      <rect width="352" height="92" rx="9" fill="rgba(255,255,255,0.03)" stroke="rgba(255,255,255,0.08)"/>
      <text x="14" y="22" font-size="12" font-weight="600" fill="#cbd5e1">initial-analysis · success</text>
      <text x="14" y="40" font-size="11" fill="#94a3b8" font-family="ui-monospace, Consolas, monospace">run-2026-07-08-cf14ac9</text>
      <text x="14" y="60" font-size="10" fill="#64748b">2026-07-08 16:30 · 41.7s · 12 drafts</text>
      <rect x="262" y="60" width="76" height="20" rx="10" fill="rgba(197,161,93,0.18)"/>
      <text x="300" y="73" font-size="10" fill="#c5a15d" text-anchor="middle" font-weight="600">12 drafts</text>
    </g>

    <!-- Run 4 - failed -->
    <g transform="translate(14,358)">
      <rect width="352" height="92" rx="9" fill="rgba(255,255,255,0.03)" stroke="rgba(255,255,255,0.08)"/>
      <text x="14" y="22" font-size="12" font-weight="600" fill="#cbd5e1">commit-analysis · failed</text>
      <text x="14" y="40" font-size="11" fill="#94a3b8" font-family="ui-monospace, Consolas, monospace">run-2026-07-08-8196358</text>
      <text x="14" y="60" font-size="10" fill="#64748b">2026-07-08 02:10 · 4.3s · 0 drafts</text>
      <rect x="278" y="60" width="60" height="20" rx="10" fill="rgba(211,109,109,0.18)"/>
      <text x="308" y="73" font-size="10" fill="#d36d6d" text-anchor="middle" font-weight="600">failed</text>
    </g>

    <!-- Run 5 -->
    <g transform="translate(14,462)">
      <rect width="352" height="92" rx="9" fill="rgba(255,255,255,0.03)" stroke="rgba(255,255,255,0.08)"/>
      <text x="14" y="22" font-size="12" font-weight="600" fill="#cbd5e1">commit-analysis · success</text>
      <text x="14" y="40" font-size="11" fill="#94a3b8" font-family="ui-monospace, Consolas, monospace">run-2026-07-07-cb10b4b</text>
      <text x="14" y="60" font-size="10" fill="#64748b">2026-07-07 23:55 · 19.8s · 4 drafts</text>
      <rect x="270" y="60" width="68" height="20" rx="10" fill="rgba(117,183,152,0.18)"/>
      <text x="304" y="73" font-size="10" fill="#75b798" text-anchor="middle" font-weight="600">4 drafts</text>
    </g>
  </g>

  <!-- Right: Draft review -->
  <g transform="translate(730,90)" font-family="-apple-system, BlinkMacSystemFont, Segoe UI, sans-serif">
    <rect width="510" height="680" rx="10" fill="#141c26" stroke="rgba(255,255,255,0.08)"/>

    <!-- Header -->
    <g transform="translate(24,28)">
      <text x="0" y="0" font-size="13" font-weight="600" fill="#cbd5e1">Draft #1 · modules/team-knowledge-store.md</text>
      <text x="0" y="20" font-size="11" fill="#94a3b8" font-family="ui-monospace, Consolas, monospace">run-2026-07-09-c6cde9c · propose +42 −6</text>
    </g>

    <!-- Diff view -->
    <g transform="translate(24,72)">
      <rect width="462" height="500" rx="8" fill="#0a0f15" stroke="rgba(255,255,255,0.08)"/>

      <!-- Diff hunk header -->
      <rect x="0" y="0" width="462" height="26" fill="rgba(255,255,255,0.04)"/>
      <text x="12" y="17" font-size="10" font-family="ui-monospace, Consolas, monospace" fill="#7492a5">@@ 3.8 checkoutStore contract @@</text>

      <!-- Diff lines -->
      <g font-family="ui-monospace, Consolas, monospace" font-size="11">
        <text x="12" y="48" fill="#64748b">### 3.8 checkoutStore(repo, opts)</text>
        <text x="12" y="68" fill="#64748b"> </text>
        <text x="12" y="68" fill="#94a3b8">Materializes a team store locally using</text>
        <text x="12" y="88" fill="#94a3b8">sparse-checkout for `changes/` and</text>
        <text x="12" y="108" fill="#94a3b8">`modules/` only.</text>

        <!-- Added block -->
        <rect x="6" y="122" width="450" height="68" fill="url(#diffAdd)"/>
        <text x="20" y="138" fill="#75b798" font-weight="600">+</text>
        <text x="32" y="138" fill="#75b798">New options:</text>
        <text x="20" y="156" fill="#75b798" font-weight="600">+</text>
        <text x="32" y="156" fill="#cbd5e1">  - `sparsePaths` (default: ['changes',</text>
        <text x="20" y="172" fill="#75b798" font-weight="600">+</text>
        <text x="32" y="172" fill="#cbd5e1">    'modules'])</text>

        <!-- Removed block -->
        <rect x="6" y="198" width="450" height="28" fill="rgba(211,109,109,0.10)"/>
        <text x="20" y="214" fill="#d36d6d" font-weight="600">−</text>
        <text x="32" y="214" fill="#cbd5e1">  - `force` — re-clone even if exists</text>

        <text x="12" y="244" fill="#64748b"> </text>
        <text x="12" y="264" fill="#94a3b8">Returns `{ localPath, sparseApplied }`.</text>
        <text x="12" y="284" fill="#94a3b8">Throws if the remote is unreachable.</text>
      </g>

      <!-- Lower preview -->
      <rect x="0" y="320" width="462" height="26" fill="rgba(255,255,255,0.04)"/>
      <text x="12" y="337" font-size="10" font-family="ui-monospace, Consolas, monospace" fill="#7492a5">@@ 4.2.1 fetchAndCheckout @@</text>

      <g font-family="ui-monospace, Consolas, monospace" font-size="11">
        <text x="12" y="368" fill="#94a3b8">git init &amp;&amp; git remote add origin …</text>
        <text x="12" y="388" fill="#94a3b8">git config core.sparseCheckout true</text>
        <text x="12" y="408" fill="#94a3b8">echo -e "changes/\nmodules/" &gt;</text>
        <text x="12" y="428" fill="#94a3b8">  .git/info/sparse-checkout</text>
        <text x="12" y="448" fill="#94a3b8">git pull --depth=1 origin main</text>
      </g>
    </g>

    <!-- Action bar -->
    <g transform="translate(24,602)">
      <rect x="0" y="0" width="180" height="44" rx="8" fill="#7492a5"/>
      <text x="90" y="28" font-size="13" font-weight="600" fill="#0c1118" text-anchor="middle">✓ Apply Draft</text>

      <rect x="192" y="0" width="120" height="44" rx="8" fill="rgba(255,255,255,0.03)" stroke="rgba(255,255,255,0.1)"/>
      <text x="252" y="28" font-size="13" fill="#cbd5e1" text-anchor="middle">✎ Edit</text>

      <rect x="324" y="0" width="138" height="44" rx="8" fill="rgba(211,109,109,0.12)" stroke="rgba(211,109,109,0.4)"/>
      <text x="393" y="28" font-size="13" fill="#d36d6d" text-anchor="middle">✕ Reject</text>
    </g>
  </g>
</svg>